HIERARCHY
ROOT hip
{
  OFFSET 0 0 0
  CHANNELS 6 Xposition Yposition Zposition Zrotation Yrotation Xrotation
  JOINT abdomen
  {
    OFFSET 0 20.6881 -0.73152
    CHANNELS 3 Zrotation Xrotation Yrotation
    JOINT chest
    {
      OFFSET 0 11.7043 -0.48768
      CHANNELS 3 Zrotation Xrotation Yrotation
      JOINT neck
      {
        OFFSET 0 22.1894 -2.19456
        CHANNELS 3 Zrotation Xrotation Yrotation
        JOINT head
        {
          OFFSET -0.24384 7.07133 1.2192
          CHANNELS 3 Zrotation Xrotation Yrotation
          JOINT leftEye
          {
            OFFSET 4.14528 8.04674 8.04672
            CHANNELS 3 Zrotation Xrotation Yrotation
            End Site
            {
              OFFSET 1 0 0
            }
          }
          JOINT rightEye
          {
            OFFSET -3.6576 8.04674 8.04672
            CHANNELS 3 Zrotation Xrotation Yrotation
            End Site
            {
              OFFSET 1 0 0
            }
          }
        }
      }
      JOINT rCollar
      {
        OFFSET -2.68224 19.2634 -4.8768
        CHANNELS 3 Zrotation Xrotation Yrotation
        JOINT rShldr
        {
          OFFSET -8.77824 -1.95073 1.46304
          CHANNELS 3 Zrotation Xrotation Yrotation
          JOINT rForeArm
          {
            OFFSET -28.1742 -1.7115 0.48768
            CHANNELS 3 Zrotation Xrotation Yrotation
            JOINT rHand
            {
              OFFSET -22.5879 0.773209 7.07136
              CHANNELS 3 Zrotation Xrotation Yrotation
              JOINT rThumb1
              {
                OFFSET -1.2192 -0.487915 3.41376
                CHANNELS 3 Zrotation Xrotation Yrotation
                JOINT rThumb2
                {
                  OFFSET -3.37035 -0.52449 3.41376
                  CHANNELS 3 Zrotation Xrotation Yrotation
                  End Site
                  {
                    OFFSET -1.78271 -1.18214 1.43049
                  }
                }
              }
              JOINT rIndex1
              {
                OFFSET -7.75947 0.938293 5.60832
                CHANNELS 3 Zrotation Xrotation Yrotation
                JOINT rIndex2
                {
                  OFFSET -2.54057 -0.884171 1.56538
                  CHANNELS 3 Zrotation Xrotation Yrotation
                  End Site
                  {
                    OFFSET -1.62519 -0.234802 1.16502
                  }
                }
              }
              JOINT rMid1
              {
                OFFSET -8.24714 1.18213 3.41376
                CHANNELS 3 Zrotation Xrotation Yrotation
                JOINT rMid2
                {
                  OFFSET -3.10165 -0.590103 1.0647
                  CHANNELS 3 Zrotation Xrotation Yrotation
                  End Site
                  {
                    OFFSET -2.48547 -0.328903 0.83742
                  }
                }
              }
              JOINT rRing1
              {
                OFFSET -8.82822 0.546677 1.51678
                CHANNELS 3 Zrotation Xrotation Yrotation
                JOINT rRing2
                {
                  OFFSET -2.60934 -0.819778 -0.0198488
                  CHANNELS 3 Zrotation Xrotation Yrotation
                  End Site
                  {
                    OFFSET -2.33842 -0.294052 0.168128
                  }
                }
              }
              JOINT rPinky1
              {
                OFFSET -8.27202 -0.0477905 -0.4584
                CHANNELS 3 Zrotation Xrotation Yrotation
                JOINT rPinky2
                {
                  OFFSET -1.82734 -0.647385 -0.700984
                  CHANNELS 3 Zrotation Xrotation Yrotation
                  End Site
                  {
                    OFFSET -1.69225 -0.51767 -0.607171
                  }
                }
              }
            }
          }
        }
      }
      JOINT lCollar
      {
        OFFSET 2.68224 19.2634 -4.8768
        CHANNELS 3 Zrotation Xrotation Yrotation
        JOINT lShldr
        {
          OFFSET 8.77824 -1.95073 1.46304
          CHANNELS 3 Zrotation Xrotation Yrotation
          JOINT lForeArm
          {
            OFFSET 28.1742 -1.7115 0.48768
            CHANNELS 3 Zrotation Xrotation Yrotation
            JOINT lHand
            {
              OFFSET 22.5879 0.773209 7.07136
              CHANNELS 3 Zrotation Xrotation Yrotation
              JOINT lThumb1
              {
                OFFSET 1.2192 -0.487915 3.41376
                CHANNELS 3 Zrotation Xrotation Yrotation
                JOINT lThumb2
                {
                  OFFSET 3.37035 -0.52449 3.41376
                  CHANNELS 3 Zrotation Xrotation Yrotation
                  End Site
                  {
                    OFFSET 1.78271 -1.18214 1.43049
                  }
                }
              }
              JOINT lIndex1
              {
                OFFSET 7.75947 0.938293 5.60832
                CHANNELS 3 Zrotation Xrotation Yrotation
                JOINT lIndex2
                {
                  OFFSET 2.54057 -0.884171 1.56538
                  CHANNELS 3 Zrotation Xrotation Yrotation
                  End Site
                  {
                    OFFSET 1.62519 -0.234802 1.16502
                  }
                }
              }
              JOINT lMid1
              {
                OFFSET 8.24714 1.18213 3.41376
                CHANNELS 3 Zrotation Xrotation Yrotation
                JOINT lMid2
                {
                  OFFSET 3.10165 -0.590103 1.0647
                  CHANNELS 3 Zrotation Xrotation Yrotation
                  End Site
                  {
                    OFFSET 2.48547 -0.328903 0.83742
                  }
                }
              }
              JOINT lRing1
              {
                OFFSET 8.82822 0.546677 1.51678
                CHANNELS 3 Zrotation Xrotation Yrotation
                JOINT lRing2
                {
                  OFFSET 2.60934 -0.819778 -0.0198488
                  CHANNELS 3 Zrotation Xrotation Yrotation
                  End Site
                  {
                    OFFSET 2.33842 -0.294052 0.168128
                  }
                }
              }
              JOINT lPinky1
              {
                OFFSET 8.27202 -0.0477905 -0.4584
                CHANNELS 3 Zrotation Xrotation Yrotation
                JOINT lPinky2
                {
                  OFFSET 1.82734 -0.647385 -0.700984
                  CHANNELS 3 Zrotation Xrotation Yrotation
                  End Site
                  {
                    OFFSET 1.69225 -0.51767 -0.607171
                  }
                }
              }
            }
          }
        }
      }
    }
  }
  JOINT rButtock
  {
    OFFSET -8.77824 4.35084 1.2192
    CHANNELS 3 Zrotation Xrotation Yrotation
    JOINT rThigh
    {
      OFFSET 0 -1.70687 -2.19456
      CHANNELS 3 Zrotation Xrotation Yrotation
      JOINT rShin
      {
        OFFSET 0 -36.8199 0.73152
        CHANNELS 3 Zrotation Xrotation Yrotation
        JOINT rFoot
        {
          OFFSET 0.73152 -45.1104 -5.12064
          CHANNELS 3 Zrotation Xrotation Yrotation
          End Site
          {
            OFFSET -1.1221 -3.69964 12.103
          }
        }
      }
    }
  }
  JOINT lButtock
  {
    OFFSET 8.77824 4.35084 1.2192
    CHANNELS 3 Zrotation Xrotation Yrotation
    JOINT lThigh
    {
      OFFSET 0 -1.70687 -2.19456
      CHANNELS 3 Zrotation Xrotation Yrotation
      JOINT lShin
      {
        OFFSET 0 -36.8199 0.73152
        CHANNELS 3 Zrotation Xrotation Yrotation
        JOINT lFoot
        {
          OFFSET -0.73152 -45.1104 -5.12064
          CHANNELS 3 Zrotation Xrotation Yrotation
          End Site
          {
            OFFSET 1.1221 -3.69964 12.103
          }
        }
      }
    }
  }
}
MOTION
Frames:	9
Frame Time:	0.00833333
19.0397 83.8961 -133.692 -166.915 -51.6828 165.488 -7.55398 -0.783041 10.4486 -7.32762 9.99863 3.24061 -4.86205 28.1367 -4.2521 27.0637 -29.3651 -3.64045 -0.0 0.0 0.0 -0.0 0.0 0.0 3.09792e-14 -4.84691e-13 -2.44682e-13 5.81589 30.3253 32.4461 -15.954 -55.9222 123.318 -9.14641 -61.8311 -15.2155 -1.6074e-09 1.55072e-09 6.63994e-11 -2.76152e-09 2.54722e-09 2.37776e-11 -1.60739e-09 1.55073e-09 6.6399e-11 7.73091 5.47488 0.417314 -1.6074e-09 1.55073e-09 6.6408e-11 2.90554 0.965183 0.102902 -1.60739e-09 1.55073e-09 6.6405e-11 10.2786 0.731801 0.0259123 -1.6074e-09 1.55073e-09 6.64141e-11 2.22167 -0.733487 -0.20892 3.10188e-14 -4.84683e-13 -2.4485e-13 -66.7952 6.07133 0.748744 11.0659 -4.81437 -19.8167 0.832846 -24.9899 3.75597 -2.89214e-10 -1.99501e-09 2.25175e-10 -4.92688e-10 -3.4652e-09 3.76789e-10 -2.89219e-10 -1.99501e-09 2.25174e-10 -7.73091 5.47488 -0.417314 -2.89214e-10 -1.99501e-09 2.25177e-10 -2.90554 0.965183 -0.102902 -2.8922e-10 -1.99501e-09 2.25174e-10 -10.2786 0.731801 -0.0259123 -2.89207e-10 -1.99501e-09 2.25173e-10 -2.22167 -0.733487 0.20892 -2.03217e-16 0.0 -3.88251e-19 7.79742 -3.35072 -11.0167 -0.18321 30.8451 0.801485 -13.3528 -26.6338 -22.919 2.03217e-16 0.0 3.88251e-19 13.5959 -16.6012 5.26461 0.271563 38.7906 -0.482096 -2.13097 -19.8618 -6.77622
19.2712 83.9014 -133.755 -166.201 -52.4915 164.899 -7.37195 -0.610415 10.3803 -7.19034 9.98844 3.21493 -4.88358 28.2881 -4.38655 27.2129 -29.6353 -3.80072 -0.0 0.0 0.0 -0.0 0.0 0.0 1.37804e-13 -1.36244e-12 -6.17113e-13 6.20679 30.4856 31.9398 -15.7007 -56.0535 123.851 -9.01234 -61.5965 -15.0633 -2.96344e-09 3.42598e-09 6.51604e-10 -5.11598e-09 5.70225e-09 9.49455e-10 -2.96343e-09 3.42598e-09 6.51608e-10 7.73091 5.47488 0.417314 -2.96344e-09 3.42598e-09 6.51611e-10 2.90554 0.965183 0.102902 -2.96344e-09 3.42599e-09 6.51609e-10 10.2786 0.731801 0.0259123 -2.96344e-09 3.42599e-09 6.5162e-10 2.22167 -0.733487 -0.20892 1.37827e-13 -1.36242e-12 -6.17366e-13 -66.9733 5.90942 0.964162 11.1307 -4.85707 -19.9404 0.847785 -25.1948 3.79117 -1.57066e-09 -3.79578e-09 -8.53529e-10 -2.67678e-09 -6.59928e-09 -1.51496e-09 -1.57066e-09 -3.79579e-09 -8.53532e-10 -7.73091 5.47488 -0.417314 -1.57066e-09 -3.79579e-09 -8.53532e-10 -2.90554 0.965183 -0.102902 -1.57066e-09 -3.79578e-09 -8.53533e-10 -10.2786 0.731801 -0.0259123 -1.57065e-09 -3.79578e-09 -8.53535e-10 -2.22167 -0.733487 0.20892 -2.03217e-16 0.0 -3.88251e-19 8.34366 -3.28647 -11.3162 -0.17873 30.4954 0.801837 -13.6443 -26.8608 -23.2701 2.03217e-16 0.0 3.88251e-19 14.0058 -17.1192 5.04487 0.27532 38.906 -0.478611 -2.34953 -19.4535 -7.46522
19.5096 83.9033 -133.82 -165.471 -53.2971 164.284 -7.20455 -0.406902 10.3021 -7.05057 9.97353 3.18471 -4.8862 28.4214 -4.52572 27.3445 -29.9205 -3.96385 -0.0 0.0 0.0 -0.0 0.0 0.0 2.21027e-13 -1.87654e-12 -7.9827e-13 6.60511 30.607 31.4406 -15.4492 -56.181 124.376 -8.8914 -61.3809 -14.9257 -3.65073e-09 4.54199e-09 1.06928e-09 -6.31521e-09 7.59408e-09 1.62628e-09 -3.65072e-09 4.54199e-09 1.06929e-09 7.73091 5.47488 0.417314 -3.65073e-09 4.54199e-09 1.06929e-09 2.90554 0.965183 0.102902 -3.65073e-09 4.542e-09 1.06928e-09 10.2786 0.731801 0.0259123 -3.65073e-09 4.542e-09 1.0693e-09 2.22167 -0.733487 -0.20892 2.21035e-13 -1.87652e-12 -7.98568e-13 -67.1485 5.805 1.18036 11.2158 -4.91375 -20.1022 0.867519 -25.466 3.83781 -2.37926e-09 -4.57702e-09 -1.29742e-09 -4.06091e-09 -7.96054e-09 -2.29893e-09 -2.37926e-09 -4.57702e-09 -1.29743e-09 -7.73091 5.47488 -0.417314 -2.37926e-09 -4.57702e-09 -1.29743e-09 -2.90554 0.965183 -0.102902 -2.37926e-09 -4.57702e-09 -1.29743e-09 -10.2786 0.731801 -0.0259123 -2.37925e-09 -4.57702e-09 -1.29743e-09 -2.22167 -0.733487 0.20892 -2.03217e-16 0.0 -3.88251e-19 8.89129 -3.23542 -11.5805 -0.174447 30.1656 0.803717 -13.9702 -27.1165 -23.6555 2.03217e-16 0.0 3.88251e-19 14.3964 -17.6468 4.82661 0.279259 39.0295 -0.475223 -2.54957 -19.0281 -8.13392
19.751 83.9019 -133.885 -164.727 -54.1011 163.642 -7.06536 -0.170087 10.2174 -6.90479 9.95152 3.15017 -4.86492 28.5304 -4.6723 27.4582 -30.2181 -4.13458 -0.0 0.0 0.0 -0.0 0.0 0.0 2.73306e-13 -1.80411e-12 -6.68411e-13 7.0171 30.684 30.9459 -15.198 -56.3058 124.897 -8.78598 -61.1899 -14.8054 -3.25983e-09 4.51019e-09 1.27757e-09 -5.65496e-09 7.5854e-09 2.0058e-09 -3.25983e-09 4.51019e-09 1.27758e-09 7.73091 5.47488 0.417314 -3.25984e-09 4.51018e-09 1.27757e-09 2.90554 0.965183 0.102902 -3.25983e-09 4.5102e-09 1.27757e-09 10.2786 0.731801 0.0259123 -3.25983e-09 4.5102e-09 1.27758e-09 2.22167 -0.733487 -0.20892 2.73303e-13 -1.80411e-12 -6.68694e-13 -67.3171 5.77719 1.39792 11.326 -4.98749 -20.3122 0.895152 -25.8402 3.90247 -2.50708e-09 -3.68262e-09 -7.02628e-10 -4.29674e-09 -6.40882e-09 -1.27192e-09 -2.50708e-09 -3.68262e-09 -7.02629e-10 -7.73091 5.47488 -0.417314 -2.50708e-09 -3.68262e-09 -7.02634e-10 -2.90554 0.965183 -0.102902 -2.50708e-09 -3.68262e-09 -7.02634e-10 -10.2786 0.731801 -0.0259123 -2.50707e-09 -3.68262e-09 -7.02639e-10 -2.22167 -0.733487 0.20892 -2.03217e-16 0.0 -3.88251e-19 9.44749 -3.20105 -11.782 -0.170297 29.8573 0.807774 -14.3512 -27.4189 -24.0965 2.03217e-16 0.0 3.88251e-19 14.7664 -18.185 4.61476 0.283282 39.1574 -0.471663 -2.72876 -18.5817 -8.77902
19.9902 83.8975 -133.949 -163.971 -54.9132 162.969 -6.958 0.0962842 10.1299 -6.74305 9.91813 3.11143 -4.8244 28.6163 -4.82479 27.5609 -30.5252 -4.31086 -0.0 0.0 0.0 -0.0 0.0 0.0 3.13589e-13 -1.39069e-12 -3.51799e-13 7.44065 30.7227 30.4467 -14.9446 -56.4293 125.419 -8.69489 -61.0227 -14.7014 -2.21284e-09 3.80933e-09 1.3837e-09 -3.8644e-09 6.47265e-09 2.2476e-09 -2.21284e-09 3.80933e-09 1.3837e-09 7.73091 5.47488 0.417314 -2.21284e-09 3.80933e-09 1.3837e-09 2.90554 0.965183 0.102902 -2.21284e-09 3.80934e-09 1.3837e-09 10.2786 0.731801 0.0259123 -2.21284e-09 3.80934e-09 1.38371e-09 2.22167 -0.733487 -0.20892 3.13572e-13 -1.39071e-12 -3.52032e-13 -67.4879 5.82152 1.6206 11.4614 -5.07835 -20.5716 0.931037 -26.31 3.98442 -2.24961e-09 -1.76042e-09 5.11141e-10 -3.88361e-09 -3.07056e-09 8.33907e-10 -2.24962e-09 -1.76042e-09 5.11144e-10 -7.73091 5.47488 -0.417314 -2.24961e-09 -1.76042e-09 5.11136e-10 -2.90554 0.965183 -0.102902 -2.24962e-09 -1.76042e-09 5.11137e-10 -10.2786 0.731801 -0.0259123 -2.2496e-09 -1.76042e-09 5.11129e-10 -2.22167 -0.733487 0.20892 -2.03217e-16 0.0 -3.88251e-19 10.0109 -3.18832 -11.9215 -0.16624 29.5711 0.813816 -14.787 -27.7605 -24.5936 2.03217e-16 0.0 3.88251e-19 15.1151 -18.7373 4.40785 0.287336 39.2881 -0.467915 -2.88743 -18.1112 -9.40329
20.2256 83.8904 -134.008 -163.193 -55.7321 162.256 -6.84825 0.389757 10.0287 -6.58078 9.88196 3.0679 -4.77282 28.6923 -4.97798 27.6475 -30.8494 -4.48405 -0.0 0.0 0.0 -0.0 0.0 0.0 3.44182e-13 -9.53609e-13 -2.46516e-14 7.85899 30.7298 29.958 -14.695 -56.5482 125.931 -8.61132 -60.8677 -14.6058 -1.11441e-09 2.95465e-09 1.40143e-09 -1.98124e-09 5.09247e-09 2.34102e-09 -1.1144e-09 2.95465e-09 1.40142e-09 7.73091 5.47488 0.417314 -1.11441e-09 2.95465e-09 1.40142e-09 2.90554 0.965183 0.102902 -1.1144e-09 2.95466e-09 1.40142e-09 10.2786 0.731801 0.0259123 -1.11441e-09 2.95466e-09 1.40143e-09 2.22167 -0.733487 -0.20892 3.4415e-13 -9.53655e-13 -2.48299e-14 -67.6653 5.89824 1.8445 11.6098 -5.17876 -20.857 0.969709 -26.7983 4.07051 -1.8531e-09 1.99224e-10 1.74993e-09 -3.23079e-09 3.33689e-10 2.98551e-09 -1.85311e-09 1.99226e-10 1.74994e-09 -7.73091 5.47488 -0.417314 -1.8531e-09 1.99224e-10 1.74993e-09 -2.90554 0.965183 -0.102902 -1.85311e-09 1.99225e-10 1.74993e-09 -10.2786 0.731801 -0.0259123 -1.85309e-09 1.99225e-10 1.74992e-09 -2.22167 -0.733487 0.20892 -2.03217e-16 0.0 -3.88251e-19 10.5653 -3.18559 -12.0605 -0.162348 29.3031 0.820456 -15.2367 -28.1033 -25.1018 2.03217e-16 0.0 3.88251e-19 15.4455 -19.2987 4.19566 0.291682 39.4312 -0.464591 -3.02998 -17.6292 -10.0126
20.4543 83.8811 -134.062 -162.375 -56.5551 161.486 -6.70167 0.707915 9.90347 -6.43342 9.85161 3.01897 -4.71823 28.7718 -5.12672 27.7129 -31.1986 -4.64544 -0.0 0.0 0.0 -0.0 0.0 0.0 3.6739e-13 -8.10219e-13 1.36814e-13 8.25571 30.712 29.4944 -14.4556 -56.6595 126.419 -8.52884 -60.7127 -14.5113 -5.69189e-10 2.46139e-09 1.34452e-09 -1.04322e-09 4.28147e-09 2.27537e-09 -5.69184e-10 2.46139e-09 1.34451e-09 7.73091 5.47488 0.417314 -5.6919e-10 2.46138e-09 1.34452e-09 2.90554 0.965183 0.102902 -5.69176e-10 2.46139e-09 1.34451e-09 10.2786 0.731801 0.0259123 -5.69185e-10 2.46139e-09 1.34452e-09 2.22167 -0.733487 -0.20892 3.67343e-13 -8.10274e-13 1.36664e-13 -67.853 5.96765 2.0657 11.7595 -5.28132 -21.1452 1.00475 -27.2281 4.14698 -1.56379e-09 1.20594e-09 2.4198e-09 -2.74756e-09 2.08338e-09 4.14986e-09 -1.5638e-09 1.20595e-09 2.41981e-09 -7.73091 5.47488 -0.417314 -1.56379e-09 1.20595e-09 2.4198e-09 -2.90554 0.965183 -0.102902 -1.5638e-09 1.20595e-09 2.4198e-09 -10.2786 0.731801 -0.0259123 -1.56378e-09 1.20595e-09 2.41979e-09 -2.22167 -0.733487 0.20892 -2.03217e-16 0.0 -3.88251e-19 11.0949 -3.18126 -12.2604 -0.158722 29.0491 0.826326 -15.6563 -28.4108 -25.5744 2.03217e-16 0.0 3.88251e-19 15.7604 -19.8642 3.96783 0.296585 39.5961 -0.462309 -3.16125 -17.1482 -10.6127
20.6791 83.8702 -134.112 -161.493 -57.3749 160.637 -6.50406 1.05619 9.7429 -6.30329 9.82769 2.96178 -4.66385 28.8508 -5.26751 27.7566 -31.5715 -4.78854 -0.0 0.0 0.0 -0.0 0.0 0.0 3.91833e-13 -1.20717e-12 2.83132e-14 8.62205 30.6679 29.0668 -14.2298 -56.7625 126.877 -8.44966 -60.5622 -14.4205 -9.43191e-10 2.61833e-09 1.18709e-09 -1.6767e-09 4.50237e-09 1.98596e-09 -9.43185e-10 2.61833e-09 1.18708e-09 7.73091 5.47488 0.417314 -9.43192e-10 2.61832e-09 1.18709e-09 2.90554 0.965183 0.102902 -9.43178e-10 2.61833e-09 1.18708e-09 10.2786 0.731801 0.0259123 -9.43186e-10 2.61833e-09 1.18709e-09 2.22167 -0.733487 -0.20892 3.9177e-13 -1.20721e-12 2.81521e-14 -68.0532 6.02657 2.28705 11.9113 -5.38679 -21.4378 1.03497 -27.5941 4.21246 -1.49137e-09 6.99046e-10 2.22582e-09 -2.61456e-09 1.20464e-09 3.81366e-09 -1.49137e-09 6.99049e-10 2.22583e-09 -7.73091 5.47488 -0.417314 -1.49137e-09 6.99047e-10 2.22582e-09 -2.90554 0.965183 -0.102902 -1.49138e-09 6.99047e-10 2.22581e-09 -10.2786 0.731801 -0.0259123 -1.49136e-09 6.99048e-10 2.2258e-09 -2.22167 -0.733487 0.20892 -2.03217e-16 0.0 -3.88251e-19 11.6049 -3.16745 -12.5357 -0.15535 28.8 0.831187 -16.0387 -28.6767 -26.0062 2.03217e-16 0.0 3.88251e-19 16.065 -20.4344 3.71687 0.302131 39.7853 -0.461159 -3.28255 -16.6666 -11.208
20.8971 83.8571 -134.154 -160.554 -58.1931 159.716 -6.27429 1.43404 9.55557 -6.18275 9.80617 2.89755 -4.60513 28.9248 -5.40376 27.7811 -31.9653 -4.91942 -0.0 0.0 0.0 -0.0 0.0 0.0 4.13614e-13 -1.9212e-12 -2.37072e-13 8.96721 30.5952 28.6658 -14.0144 -56.8593 127.311 -8.37563 -60.4198 -14.3354 -1.84568e-09 3.10022e-09 9.31652e-10 -3.21168e-09 5.2291e-09 1.49911e-09 -1.84567e-09 3.10022e-09 9.3164e-10 7.73091 5.47488 0.417314 -1.84568e-09 3.10022e-09 9.31648e-10 2.90554 0.965183 0.102902 -1.84566e-09 3.10022e-09 9.31643e-10 10.2786 0.731801 0.0259123 -1.84567e-09 3.10022e-09 9.31647e-10 2.22167 -0.733487 -0.20892 4.13532e-13 -1.92121e-12 -2.37268e-13 -68.2637 6.09369 2.50937 12.0699 -5.49804 -21.7448 1.06322 -27.9322 4.27328 -1.48983e-09 -6.94411e-10 1.53027e-09 -2.58969e-09 -1.21322e-09 2.60714e-09 -1.48984e-09 -6.94409e-10 1.53028e-09 -7.73091 5.47488 -0.417314 -1.48983e-09 -6.9441e-10 1.53027e-09 -2.90554 0.965183 -0.102902 -1.48984e-09 -6.94411e-10 1.53027e-09 -10.2786 0.731801 -0.0259123 -1.48982e-09 -6.9441e-10 1.53026e-09 -2.22167 -0.733487 0.20892 -2.03217e-16 0.0 -3.88251e-19 12.1009 -3.15191 -12.8541 -0.152205 28.5606 0.835732 -16.4042 -28.9201 -26.4187 2.03217e-16 0.0 3.88251e-19 16.3553 -21.0114 3.44942 0.308188 39.9936 -0.460846 -3.39147 -16.1799 -11.7946
